<svg xmlns="http://www.w3.org/2000/svg" xmlns:xlink="http://www.w3.org/1999/xlink" viewBox="0 0 663.24 405.79"><defs><style>.cls-1{fill:#112803;}.cls-2{fill:url(#linear-gradient);}.cls-3{fill:url(#linear-gradient-2);}.cls-4{fill:url(#linear-gradient-3);}.cls-5{fill:url(#linear-gradient-4);}.cls-6{fill:url(#linear-gradient-5);}.cls-7{fill:url(#linear-gradient-6);}.cls-8{fill:url(#linear-gradient-7);}.cls-9{fill:url(#linear-gradient-8);}.cls-10{fill:url(#linear-gradient-9);}.cls-11{fill:url(#linear-gradient-10);}.cls-12{fill:url(#linear-gradient-11);}.cls-13{fill:url(#linear-gradient-12);}.cls-14{fill:url(#linear-gradient-13);}.cls-15{fill:url(#linear-gradient-14);}.cls-16{fill:url(#linear-gradient-15);}.cls-17{fill:url(#linear-gradient-16);}.cls-18{fill:url(#linear-gradient-17);}.cls-19{fill:url(#linear-gradient-18);}.cls-20{fill:url(#linear-gradient-19);}.cls-21{fill:url(#linear-gradient-20);}.cls-22{fill:url(#linear-gradient-21);}.cls-23{fill:url(#linear-gradient-22);}.cls-24{fill:url(#linear-gradient-23);}.cls-25{fill:url(#linear-gradient-24);}.cls-26{fill:url(#linear-gradient-25);}.cls-27{fill:url(#linear-gradient-26);}.cls-28{fill:url(#linear-gradient-27);}.cls-29{fill:url(#linear-gradient-28);}.cls-30{fill:url(#linear-gradient-29);}.cls-31{fill:url(#linear-gradient-30);}.cls-32{fill:url(#linear-gradient-31);}.cls-33{fill:url(#linear-gradient-32);}.cls-34{fill:url(#linear-gradient-33);}.cls-35{fill:url(#linear-gradient-34);}</style><linearGradient id="linear-gradient" x1="256.11" y1="370.07" x2="259.86" y2="64.14" gradientUnits="userSpaceOnUse"><stop offset="0" stop-color="#7fba49"/><stop offset="0.3" stop-color="#89c34a"/><stop offset="0.38" stop-color="#80bb49"/><stop offset="0.52" stop-color="#66a546"/><stop offset="0.57" stop-color="#5c9c45"/><stop offset="0.87" stop-color="#00752a"/><stop offset="0.99" stop-color="#005908"/></linearGradient><linearGradient id="linear-gradient-2" x1="331.82" y1="371" x2="335.57" y2="65.07" xlink:href="#linear-gradient"/><linearGradient id="linear-gradient-3" x1="407.28" y1="371.93" x2="411.03" y2="66" xlink:href="#linear-gradient"/><linearGradient id="linear-gradient-4" x1="37.4" y1="370.31" x2="41.15" y2="64.38" xlink:href="#linear-gradient"/><linearGradient id="linear-gradient-5" x1="106.79" y1="371.16" x2="110.54" y2="65.23" xlink:href="#linear-gradient"/><linearGradient id="linear-gradient-6" x1="169" y1="371.92" x2="172.75" y2="65.99" xlink:href="#linear-gradient"/><linearGradient id="linear-gradient-7" x1="373.64" y1="374.43" x2="377.39" y2="68.5" xlink:href="#linear-gradient"/><linearGradient id="linear-gradient-8" x1="233.1" y1="372.71" x2="236.85" y2="66.78" xlink:href="#linear-gradient"/><linearGradient id="linear-gradient-9" x1="514.62" y1="376.16" x2="518.37" y2="70.23" xlink:href="#linear-gradient"/><linearGradient id="linear-gradient-10" x1="301.52" y1="373.55" x2="305.27" y2="67.62" xlink:href="#linear-gradient"/><linearGradient id="linear-gradient-11" x1="445.8" y1="375.32" x2="449.55" y2="69.39" xlink:href="#linear-gradient"/><linearGradient id="linear-gradient-12" x1="570.05" y1="376.84" x2="573.8" y2="70.91" xlink:href="#linear-gradient"/><linearGradient id="linear-gradient-13" x1="628.39" y1="377.56" x2="632.14" y2="71.63" xlink:href="#linear-gradient"/><linearGradient id="linear-gradient-14" x1="569.08" y1="376.83" x2="572.83" y2="70.9" xlink:href="#linear-gradient"/><linearGradient id="linear-gradient-15" x1="319.01" y1="369.39" x2="322.76" y2="63.46" xlink:href="#linear-gradient"/><linearGradient id="linear-gradient-16" x1="346.88" y1="369.73" x2="350.63" y2="63.8" xlink:href="#linear-gradient"/><linearGradient id="linear-gradient-17" x1="291.06" y1="369.04" x2="294.81" y2="63.11" xlink:href="#linear-gradient"/><linearGradient id="linear-gradient-18" x1="374.52" y1="370.07" x2="378.27" y2="64.14" xlink:href="#linear-gradient"/><linearGradient id="linear-gradient-19" x1="263.04" y1="368.7" x2="266.79" y2="62.77" xlink:href="#linear-gradient"/><linearGradient id="linear-gradient-20" x1="402.36" y1="370.41" x2="406.11" y2="64.48" xlink:href="#linear-gradient"/><linearGradient id="linear-gradient-21" x1="235.23" y1="368.36" x2="238.98" y2="62.43" xlink:href="#linear-gradient"/><linearGradient id="linear-gradient-22" x1="430.1" y1="370.75" x2="433.85" y2="64.82" xlink:href="#linear-gradient"/><linearGradient id="linear-gradient-23" x1="207.26" y1="368.02" x2="211.01" y2="62.09" xlink:href="#linear-gradient"/><linearGradient id="linear-gradient-24" x1="457.99" y1="371.09" x2="461.74" y2="65.16" xlink:href="#linear-gradient"/><linearGradient id="linear-gradient-25" x1="314.97" y1="369.34" x2="318.72" y2="63.41" xlink:href="#linear-gradient"/><linearGradient id="linear-gradient-26" x1="342.97" y1="369.68" x2="346.72" y2="63.75" xlink:href="#linear-gradient"/><linearGradient id="linear-gradient-27" x1="287.39" y1="369" x2="291.14" y2="63.07" xlink:href="#linear-gradient"/><linearGradient id="linear-gradient-28" x1="370.87" y1="370.02" x2="374.62" y2="64.09" xlink:href="#linear-gradient"/><linearGradient id="linear-gradient-29" x1="259.54" y1="368.66" x2="263.29" y2="62.73" xlink:href="#linear-gradient"/><linearGradient id="linear-gradient-30" x1="398.9" y1="370.37" x2="402.65" y2="64.44" xlink:href="#linear-gradient"/><linearGradient id="linear-gradient-31" x1="231.79" y1="368.32" x2="235.54" y2="62.39" xlink:href="#linear-gradient"/><linearGradient id="linear-gradient-32" x1="426.7" y1="370.71" x2="430.45" y2="64.78" xlink:href="#linear-gradient"/><linearGradient id="linear-gradient-33" x1="203.92" y1="367.98" x2="207.67" y2="62.04" xlink:href="#linear-gradient"/><linearGradient id="linear-gradient-34" x1="454.65" y1="371.05" x2="458.41" y2="65.12" xlink:href="#linear-gradient"/></defs><title>Asset 1</title><g id="Layer_2" data-name="Layer 2"><g id="Layer_7" data-name="Layer 7"><path class="cls-1" d="M236.51,292.14c.7-2.15,1.89-4.37,5.67-8s5.67-6.58,5.67-8.92q0-5.4-7.29-6.62l-11.88-1.9a11.45,11.45,0,0,1-4.4-1.57q-4.5-2.9-4.5-9.37,0-11.21,16.46-28.58T264,209.85q17.26,0,17.27,28.38,0,2.84-.2,7.56c-.14,3.16-.2,5.32-.2,6.49,0,8.56.08,13.83.27,15.81q.68,10.82,3.5,14.73l3.51,3.78c1.44,1.62,2.16,2.43,2.16,4.6q0,10.53-6.21,13.78c-2.61,1.26-7.59,2.32-15.33,2.32-1.08,0-2.78-.09-5.21,0s-4.57,0-5.83,0c-6.56,0-11.41-1-14.65-2.73C238.71,302.23,234.67,297.8,236.51,292.14Zm19.16-67.45q-3.64,0-12.08,11.54t-8.43,15.05q0,2.57,10.12,2.42h3.64c2.61-.08,4.82-2.16,6.62-6.2.09-.09,1.16-3.33,3.24-9.72a12.78,12.78,0,0,0,.27-2.83Q259.05,224.69,255.67,224.69Z"/><path class="cls-1" d="M308.16,225.07q0-7.2,8.77-11.55a32.9,32.9,0,0,1,15.25-3.67,38.21,38.21,0,0,1,17.68,3.94q9.72,4.89,9.71,14,0,6.53-5.39,12.91-1.89,2.17-10.66,9.92a42,42,0,0,0-4.73,4.75,5,5,0,0,0,3,8.14l.21,0h7.29q13.08,0,14,1.36c1.26.54,1.89,2.45,1.89,5.71,0,1.08-.09,2.51-.27,4.28s-.15,1.52-.27,3.19c-.47,6.6-.58,12.59-1.75,17.94-1.89,8.51-4.81,11.3-9.12,11.3a10.69,10.69,0,0,1-3.48-.89c-3.5-1.18-5.83-.23-8.87,0a151.81,151.81,0,0,1-17.4.68q-13.49,0-19.43-3.26c-5.58-2.89-9.17-8.4-8.36-16.41.36-3.58,2.1-6.24,6.31-12.21q4.17-5.83,8.47-11.53,5.37-7.19,10.75-14.38,6.85-9.9,6.85-16a10.28,10.28,0,0,0-1.2-4.48c-.81-1.63-1.84-2.44-3.09-2.44-1,0-2.19.77-3.62,2.31-.26.28-.5.54-.73.77a6,6,0,0,1-4.34,1.94h0a8.52,8.52,0,0,1-4.36-1.42,6,6,0,0,1-2.88-3.33A4.42,4.42,0,0,1,308.16,225.07Z"/><path class="cls-1" d="M441.21,262.68q0,19.05-9,31.14c-6.66,9-15.75,13.31-27.62,13.31-10,0-18.35-5.06-24.74-15.54a57,57,0,0,1-8.23-30,69.6,69.6,0,0,1,8.23-33.22q9.72-18.5,25.51-18.49,15.51,0,26.45,19.05Q441.21,245.45,441.21,262.68Zm-27-11.4a69.13,69.13,0,0,0-1.62-14.88q-2.57-10.69-7.28-10.7-3.78,0-5.67,5.56A26.59,26.59,0,0,0,398.3,240a51.39,51.39,0,0,0,1.62,13.2q2.43,8.76,7.42,8.76Q414.23,262,414.22,251.28Z"/><path class="cls-2" d="M238.76,289.89c.7-2.15,1.89-4.37,5.67-8s5.67-6.58,5.67-8.92q0-5.4-7.29-6.62l-11.88-1.91a11.6,11.6,0,0,1-4.4-1.56q-4.5-2.9-4.5-9.37,0-11.22,16.46-28.58t27.8-17.36q17.26,0,17.27,28.37c0,1.9-.06,4.42-.2,7.57s-.2,5.32-.2,6.49c0,8.56.09,13.82.27,15.81q.68,10.8,3.51,14.73,1.74,1.89,3.51,3.78c1.43,1.62,2.15,2.43,2.15,4.59q0,10.55-6.2,13.79c-2.61,1.26-7.6,2.32-15.33,2.32-1.08,0-2.79-.09-5.22,0s-4.57,0-5.83,0c-6.56,0-11.41-1-14.64-2.73C241,300,236.93,295.54,238.76,289.89Zm19.16-67.45q-3.65,0-12.07,11.54t-8.44,15q0,2.56,10.12,2.43h3.65q3.91-.13,6.61-6.2.13-.13,3.24-9.72a12.2,12.2,0,0,0,.27-2.83Q261.3,222.44,257.92,222.44Z"/><path class="cls-3" d="M310.41,222.82q0-7.22,8.77-11.55a32.93,32.93,0,0,1,15.25-3.67,38.21,38.21,0,0,1,17.68,3.94q9.72,4.89,9.72,14,0,6.53-5.4,12.91-1.89,2.17-10.66,9.92a42,42,0,0,0-4.73,4.75,5,5,0,0,0,3,8.13l.2,0h7.29q13.08,0,14,1.36,1.89.81,1.89,5.71c0,1.08-.09,2.51-.27,4.28s-.15,1.52-.27,3.19c-.47,6.6-.58,12.59-1.75,17.94-1.89,8.51-4.8,11.3-9.12,11.3a10.69,10.69,0,0,1-3.48-.89c-3.5-1.18-5.83-.23-8.87,0a151.71,151.71,0,0,1-17.39.68q-13.5,0-19.44-3.26c-5.57-2.89-9.17-8.4-8.36-16.41.36-3.58,2.1-6.24,6.32-12.21q4.15-5.83,8.46-11.53l10.75-14.38q6.85-9.9,6.85-16a10.24,10.24,0,0,0-1.2-4.47c-.81-1.63-1.83-2.45-3.09-2.45-1,0-2.19.77-3.62,2.31l-.72.78A6.08,6.08,0,0,1,318,229.2h0a8.52,8.52,0,0,1-4.36-1.42,6,6,0,0,1-2.88-3.33A4.45,4.45,0,0,1,310.41,222.82Z"/><path class="cls-4" d="M443.46,260.43q0,19-9,31.14c-6.66,9-15.75,13.31-27.62,13.31-10,0-18.35-5.06-24.73-15.54a56.94,56.94,0,0,1-8.24-30,69.47,69.47,0,0,1,8.24-33.22q9.71-18.5,25.5-18.49,15.51,0,26.45,19Q443.46,243.19,443.46,260.43Zm-27-11.4a69.07,69.07,0,0,0-1.62-14.88q-2.57-10.71-7.29-10.7-3.78,0-5.67,5.56a26.57,26.57,0,0,0-1.35,8.75A51.47,51.47,0,0,0,402.17,251q2.43,8.76,7.42,8.76Q416.48,259.73,416.48,249Z"/><path class="cls-1" d="M11.19,113.09V113a57.21,57.21,0,0,0-1-10.94,11.16,11.16,0,0,0-5-7h0A5.1,5.1,0,0,1,3,92.22a8.4,8.4,0,0,1-.34-2.46q0-5.55,7-8.27A37.24,37.24,0,0,1,24,79.32H37.23a127.41,127.41,0,0,0,13.9-1.09,128.45,128.45,0,0,1,13.49-1.08q5.67,0,8.91,7.34a29.84,29.84,0,0,1,2.56,12.37,13.26,13.26,0,0,1-1.76,7.07,6.37,6.37,0,0,1-5.82,3.54q-3.26,0-5.55-3.67-3.39-5.58-4.88-6.8Q54,93.32,46.44,93.46q-9.34.29-9.35,5.17A8.86,8.86,0,0,0,41,106.38a14,14,0,0,0,8.83,2.31,5.83,5.83,0,0,0,2.85-1.29,5.13,5.13,0,0,1,3-1.29c3.3.21,2.2,5.27,2.17,15.8a7,7,0,0,1-.83,3.47c-.84,1.46-2.09,2.58-3.62,2.22s-2.56-1.23-4.72-3.68-4.55-3.67-7.15-3.67c-2.07,0-3.38.68-3.92,2a21.57,21.57,0,0,0-.54,5.17,118.65,118.65,0,0,0,2.84,31.14q.68,3.14,7.42,9.52Q53.43,174,53,178.18q-.41,4.48-8.64,4.49c-1.44,0-3.55-.12-6.34-.34s-9.71-.4-10.87-.4l-20.79.74c-4.59,0-6.38-2.89-6.38-7.41,0-1.81.93-4,3.09-6.56L8.22,163a15.84,15.84,0,0,0,3.64-10.71Z"/><path class="cls-1" d="M82,125q-3.51-2.9-3.51-5.33,0-6.48,9.85-11.06c5.49-2.52,10.61-4,15.55-4,2,0,3.27.59,3.48,2.11v3.12c0,.66,0,1.33.08,2l0,.61a1.26,1.26,0,0,0,.54,1.06,1,1,0,0,0,1,.26c1-.35,3-2.2,6.2-5.53a13.19,13.19,0,0,1,9.72-3.91q6.21,0,9.72,6.07a22.39,22.39,0,0,1,2.94,10.58,14.56,14.56,0,0,1-3.51,10.34,12.29,12.29,0,0,1-9.55,4.31q-4,0-6.08-2.42a21.57,21.57,0,0,1-2.56-6.21c-.52-1.34-1.2-1.41-2-1.35-1.61.11-2.88,2-3.77,6.09a42.68,42.68,0,0,0-.81,8.38,32.82,32.82,0,0,0,3.37,14.61,86.68,86.68,0,0,0,6.07,9.87q3.38,4.74,3.38,7.31c0,7.21-7.65,11-23,11-11.75,0-18.87-2.64-21.33-7.76a8.13,8.13,0,0,1-.06-6.54q1.2-3,3.94-10.35,4.86-13,4.86-19.64c0-2.29,0-4.14-.06-5.54a9.57,9.57,0,0,0-2.82-6.61C83.14,125.93,82.61,125.46,82,125Z"/><path class="cls-1" d="M176.75,152.46a12.65,12.65,0,0,0,4.9-1c.9-.38,1.9-.86,3-1.44a12.26,12.26,0,0,1,5.39-1.86,9.43,9.43,0,0,1,6.55,2.53,8.22,8.22,0,0,1,2.76,6.34,24.62,24.62,0,0,1-8.43,19.16c-5.62,5-12.3,6.59-20,6.59-9.9,0-17.73-2.93-23.49-10.77q-7.83-10.53-7.82-26a47.78,47.78,0,0,1,8.63-28.16c6.48-9,14.66-13.37,24.74-13.37,7.29,0,13.36,1.85,18,5.87q7.56,6.43,7.55,17.25c0,3-1.61,5.29-4.85,6.84a25.46,25.46,0,0,1-10.93,2.06A29.42,29.42,0,0,1,170,134.11a6.43,6.43,0,0,0-2.57-.68,2.68,2.68,0,0,0-2.83,1.9,7.73,7.73,0,0,0-.41,3.13,15.09,15.09,0,0,0,3.72,9,13,13,0,0,0,7.44,4.91,7.1,7.1,0,0,0,1.45.12Zm-4.51-36.28a10.3,10.3,0,0,0-6.14,2c-1.84,1.33-3.13,3.11-2.76,5.27s1.66,2.6,5,2.6c5.85,0,7.95,0,9.31-.41s1.62-1,1.62-2.6a6.4,6.4,0,0,0-2.09-4.93A7.1,7.1,0,0,0,172.24,116.18Z"/><path class="cls-1" d="M381.42,152.46a12.65,12.65,0,0,0,4.9-1c.9-.38,1.9-.86,3-1.44a12.3,12.3,0,0,1,5.39-1.86,9.43,9.43,0,0,1,6.55,2.53,8.22,8.22,0,0,1,2.77,6.34,24.63,24.63,0,0,1-8.44,19.16c-5.62,5-12.29,6.59-20,6.59-9.9,0-17.73-2.93-23.49-10.77q-7.81-10.53-7.82-26a47.78,47.78,0,0,1,8.63-28.16c6.48-9,14.66-13.37,24.74-13.37,7.29,0,13.36,1.85,18,5.87q7.56,6.43,7.56,17.25,0,4.51-4.86,6.84a25.46,25.46,0,0,1-10.93,2.06,29.42,29.42,0,0,1-12.82-2.47,6.43,6.43,0,0,0-2.56-.68,2.69,2.69,0,0,0-2.84,1.9,7.73,7.73,0,0,0-.4,3.13,15,15,0,0,0,3.71,9,13,13,0,0,0,7.44,4.91,7.1,7.1,0,0,0,1.45.12Zm-4.51-36.28a10.32,10.32,0,0,0-6.14,2c-1.84,1.33-3.13,3.11-2.76,5.27s1.66,2.6,5,2.6c5.85,0,8,0,9.31-.41s1.62-1,1.62-2.6a6.4,6.4,0,0,0-2.09-4.93A7.1,7.1,0,0,0,376.91,116.18Z"/><path class="cls-1" d="M241,151.77a15.69,15.69,0,0,0,7.09-2.09q4-2.1,6-2.1a9.48,9.48,0,0,1,6.55,2.49,8.06,8.06,0,0,1,2.76,6.25A24.14,24.14,0,0,1,255,175.21a29.42,29.42,0,0,1-20,7.62,28.18,28.18,0,0,1-23.2-11.34q-8-10.25-8-25.06,0-16.69,8.77-28.56c6.48-8.71,15.09-13.31,25.89-13.31a26.21,26.21,0,0,1,15,4.57q7.14,4.84,7.15,13.09a11.67,11.67,0,0,1-1.62,6.34,6.28,6.28,0,0,1-5.53,3.1q-3,0-7-3.85T239.26,124q-4.72,0-7.9,4.5a16.19,16.19,0,0,0-3.17,9.47q0,4.69,4.05,9.26T241,151.77Z"/><path class="cls-1" d="M522.58,151.77a15.65,15.65,0,0,0,7.08-2.09c2.65-1.4,4.66-2.1,6-2.1a9.48,9.48,0,0,1,6.55,2.49,8.06,8.06,0,0,1,2.76,6.25,24.14,24.14,0,0,1-8.43,18.89,29.42,29.42,0,0,1-20,7.62,28.19,28.19,0,0,1-23.2-11.34q-8-10.25-8-25.06,0-16.69,8.77-28.56c6.48-8.71,15.09-13.31,25.89-13.31a26.21,26.21,0,0,1,15,4.57q7.15,4.84,7.15,13.09a11.67,11.67,0,0,1-1.62,6.34,6.28,6.28,0,0,1-5.53,3.1q-3,0-7-3.85T520.82,124q-4.73,0-7.89,4.5a16.13,16.13,0,0,0-3.17,9.47q0,4.69,4,9.26T522.58,151.77Z"/><path class="cls-1" d="M269.64,126.15c-3.1-1.73-3-1.64-3.1-1.73a5.29,5.29,0,0,1-1.48-4.13q0-5.21,7.82-9.73,10.26-6,20.11-6,4.18,0,3.51,5.2l-3.28,23.5a17.43,17.43,0,0,0-.1,4.33v0q1.62,7.73,8.5,7.73c.82,0,1.71,0,2.7-.14,2-.35,3.6-1.91,4.86-4.66a16.25,16.25,0,0,0,1.49-6.67c0-4-.79-6.84-2.36-8.53a7.6,7.6,0,0,1-2.37-5.19q0-7.2,7.29-11.47a27.17,27.17,0,0,1,14.06-4.13,8.94,8.94,0,0,1,5.64,2.36,7.09,7.09,0,0,1,2.56,5.53A153.1,153.1,0,0,1,334,129.86a152.22,152.22,0,0,0-1.48,17.56c0,1.69,1.06,3.68,3.3,5.87s3.12,3.48,3.31,4.81c.69,4.94-1.76,10.19-5.26,15.62-3.87,6-7.8,9.11-12.66,9.11-2.07,0-2.62-1.07-4.55-2.89s-2.74-4.08-4.15-4.13c-2.92-.09-3.28,1.66-6.21,4.38-1.93,1.79-5.84,2.64-10.87,2.64-16.55,0-24.31-8.07-24.31-22.55a180.38,180.38,0,0,1,1.53-19.62,29.49,29.49,0,0,0-.06-7.74C272.06,129.2,271.07,127,269.64,126.15Z"/><path class="cls-1" d="M414.32,128.13a11.2,11.2,0,0,0-3.63-3.52,5.36,5.36,0,0,1-.95-.67,5.56,5.56,0,0,1-1.62-4.31q0-5.26,7.82-9.84,8.51-5,15.12-5c2.51,0,3.69,1.5,3.51,4.52,0,.44,0,1.1.13,2,.27,1.42.76,2.12,1.49,2.12a1.64,1.64,0,0,0,.94-.4c2.61-2.16,5.31-4.26,8-6.48,2.83-2.36,6.07-2.7,10.39-2.7q9.86,0,14,3,3.5,2.43,4.18,8.5.14,1.22.13,13.63,0,9,5.4,25.51c3.6,11,5.57,16.05,5.4,19.29-.29,5.57-6.89,8.91-20.65,8.91a20,20,0,0,1-10.79-3.37,10,10,0,0,1-5.4-9.18,12.78,12.78,0,0,1,1.28-4.45,16,16,0,0,0,1.42-4.59q2-23.09,2-24,0-15.39-6.74-15.38-4.59,0-5.81,6.34a76.28,76.28,0,0,0-.4,10.12,78,78,0,0,0,1.69,13.69,78.31,78.31,0,0,1,1.68,12.35q0,9.18-5.46,13.83T423,182.67q-7.29,0-10.52-1.62-4.86-2.3-4.86-8.62c0-1.79,1.26-6.47,3.78-14q4.17-12.53,5.12-19.13a50.37,50.37,0,0,0-.54-6.94,10.66,10.66,0,0,0-1.62-4.22Z"/><path class="cls-1" d="M550.42,119.57q0-6.43,10.66-11.38,9.45-4.41,17.27-4.41,2.56,0,4.93,3a7.27,7.27,0,0,1,1.82,5.42,68.19,68.19,0,0,1-1.55,11.1A58.74,58.74,0,0,0,582,134.55q0,8.16,5.12,21.67c3.42,9,5,11.44,5.13,13.78.32,4.36-2.7,7.76-8.1,10.17a35.47,35.47,0,0,1-13.9,2.67,33.58,33.58,0,0,1-13.89-2.67c-5.13-2.32-8.92-6-7.7-10.44a122.84,122.84,0,0,1,4.66-11.44,55.54,55.54,0,0,0,5.06-20.13,31.94,31.94,0,0,0-.64-7.37,10.9,10.9,0,0,0-1-2.86l-.21-.39a7.57,7.57,0,0,0-2.8-2.79c-.56-.33-1.11-.68-1.65-1Q550.42,122.65,550.42,119.57Z"/><path class="cls-1" d="M660.94,167c.49,5.13-2.48,9.18-7.43,12.08a27.82,27.82,0,0,1-14.57,3.8,16,16,0,0,1-7.42-2q-3.78-2-5.13-2a24.12,24.12,0,0,0-5.87,1.15,23.94,23.94,0,0,1-6.14,1.16,16,16,0,0,1-12.68-6,20.43,20.43,0,0,1-5.13-13.71,28.58,28.58,0,0,1,8.09-20.08,36.75,36.75,0,0,1,18.55-10.61c.32-.08.65-.12,1-.18a22,22,0,0,0,3.49-1c1.76-.63,2.63-2.26,2.63-4.88q0-9.09-5.12-9.09c-2.07,0-3.85,1.1-5.33,3.32q-1.86,2.78-3.57,5.4a9.46,9.46,0,0,1-2.13,2.37,10.16,10.16,0,0,1-6.2,2.07,5.17,5.17,0,0,1-4.16-1.87,7.39,7.39,0,0,1-1.69-4.78q0-9,10.39-13.84a43.09,43.09,0,0,1,18.49-3.8q13.49,0,17.81,6.65,2.7,4.34,2.7,15.87v2q0,9.9,1.48,15.2.54,1.75,4.25,12.14C659.7,163.36,660.68,164.36,660.94,167Zm-31.18-22.2c0-2.44-.39-3.52-.86-4.2a1.41,1.41,0,0,0-1.16-.47,5.89,5.89,0,0,0-5.26,3,12.08,12.08,0,0,0-1.89,6.45q0,7.2,5.13,7.19c1.25,0,2.29-1.31,3.1-3.93a16.55,16.55,0,0,0,.94-5.16v-2.93Z"/><path class="cls-1" d="M569,97s-.61,3,1.45,3.22h.29c2.4,0,1.76-3.31,1.76-3.31s5.42,3.79,7.39,1.9c0,0,1.41-1.29-1.64-4,0,0,7-1,8.55-3.31a1.32,1.32,0,0,0-.33-1.84c-.61-.44-1.8-.89-4.09-.84l-3.79.29s9-8.67,6.27-10.46c0,0-1.7-1.87-11.5,7.51,0,0,.75-12.81-2.06-15.55a1.29,1.29,0,0,0-2,.24c-.86,1.34-2,5.08-1.83,15.49,0,0-9.63-9.16-11.74-7.13,0,0-3,1.83,6.47,10.19,0,0-8-.82-8.41,1.6,0,0-1.23,4.3,9.27,4.08a10.84,10.84,0,0,0-2.17,2.54,1.23,1.23,0,0,0,.8,1.73C562.94,99.81,565.74,100.1,569,97Z"/><path class="cls-5" d="M13.44,110.84v-.14a57.3,57.3,0,0,0-.95-10.93,11.12,11.12,0,0,0-5-7h0A5.13,5.13,0,0,1,5.27,90a8.42,8.42,0,0,1-.33-2.46q0-5.55,7-8.27a37.24,37.24,0,0,1,14.31-2.17H39.48A127.41,127.41,0,0,0,53.38,76a129.34,129.34,0,0,1,13.49-1.09q5.67,0,8.91,7.35a29.81,29.81,0,0,1,2.56,12.37,13.17,13.17,0,0,1-1.76,7.07,6.37,6.37,0,0,1-5.82,3.54c-2.17,0-4-1.23-5.55-3.67-2.26-3.72-3.88-6-4.88-6.8-2.7-2.45-6.59-3.63-11.64-3.54q-9.34.27-9.34,5.17a8.86,8.86,0,0,0,3.93,7.75,14,14,0,0,0,8.83,2.31A5.79,5.79,0,0,0,55,105.15a5.13,5.13,0,0,1,3-1.29c3.3.21,2.2,5.27,2.18,15.8a7.09,7.09,0,0,1-.84,3.47c-.83,1.46-2.09,2.58-3.62,2.21s-2.56-1.22-4.72-3.67S46.41,118,43.8,118c-2.07,0-3.37.68-3.91,2a21,21,0,0,0-.54,5.17,118.67,118.67,0,0,0,2.83,31.14q.68,3.12,7.42,9.52,6.07,5.85,5.67,10.06-.41,4.48-8.64,4.49c-1.44,0-3.55-.12-6.34-.34s-9.7-.4-10.87-.4l-20.79.74c-4.59,0-6.38-2.89-6.38-7.42,0-1.8.93-4,3.09-6.55l5.13-5.7A15.81,15.81,0,0,0,14.11,150Z"/><path class="cls-6" d="M84.28,122.73q-3.51-2.9-3.51-5.33,0-6.48,9.85-11.07c5.49-2.51,10.61-4,15.56-4,2,0,3.27.59,3.47,2.11v3.11c0,.67,0,1.34.08,2l0,.6a1.27,1.27,0,0,0,.54,1.07,1.07,1.07,0,0,0,1,.26q1.49-.54,6.21-5.53a13.15,13.15,0,0,1,9.71-3.91q6.21,0,9.72,6.07a22.52,22.52,0,0,1,3,10.58A14.57,14.57,0,0,1,136.34,129a12.27,12.27,0,0,1-9.55,4.32c-2.7,0-4.73-.81-6.07-2.43a21.13,21.13,0,0,1-2.57-6.2c-.52-1.34-1.2-1.41-2-1.35-1.62.1-2.88,2-3.78,6.08a42.79,42.79,0,0,0-.81,8.39,32.82,32.82,0,0,0,3.37,14.61,90.09,90.09,0,0,0,6.07,9.87c2.25,3.16,3.38,5.59,3.38,7.31,0,7.21-7.65,11-23,11-11.75,0-18.87-2.63-21.33-7.75a8.16,8.16,0,0,1-.06-6.55q1.2-3,3.95-10.35,4.84-13,4.85-19.63c0-2.29,0-4.14-.06-5.54a9.58,9.58,0,0,0-2.81-6.62C85.39,123.68,84.86,123.21,84.28,122.73Z"/><path class="cls-7" d="M179,150.21a12.65,12.65,0,0,0,4.9-1c.9-.38,1.9-.86,3-1.44a12.2,12.2,0,0,1,5.4-1.86,9.4,9.4,0,0,1,6.54,2.53,8.22,8.22,0,0,1,2.77,6.34A24.63,24.63,0,0,1,193.18,174c-5.62,5-12.29,6.58-20,6.58-9.9,0-17.73-2.93-23.48-10.76q-7.83-10.53-7.83-26a47.85,47.85,0,0,1,8.63-28.16c6.48-9,14.66-13.37,24.74-13.37,7.29,0,13.36,1.85,18,5.86q7.56,6.43,7.56,17.25,0,4.53-4.86,6.85a25.44,25.44,0,0,1-10.93,2,29.57,29.57,0,0,1-12.82-2.46,6.27,6.27,0,0,0-2.56-.68,2.69,2.69,0,0,0-2.84,1.9,7.68,7.68,0,0,0-.4,3.12,15,15,0,0,0,3.71,9,13.08,13.08,0,0,0,7.44,4.91,7.1,7.1,0,0,0,1.45.12Zm-4.51-36.29a10.33,10.33,0,0,0-6.14,2c-1.84,1.32-3.13,3.11-2.76,5.27s1.66,2.6,5,2.6c5.85,0,8,0,9.31-.41s1.62-1,1.62-2.6a6.4,6.4,0,0,0-2.09-4.93A7.06,7.06,0,0,0,174.49,113.92Z"/><path class="cls-8" d="M383.68,150.21a12.64,12.64,0,0,0,4.89-1c.9-.38,1.9-.86,3-1.44A12.2,12.2,0,0,1,397,146a9.4,9.4,0,0,1,6.54,2.53,8.22,8.22,0,0,1,2.77,6.34A24.63,24.63,0,0,1,397.85,174c-5.62,5-12.29,6.58-20,6.58-9.9,0-17.73-2.93-23.48-10.76q-7.83-10.53-7.83-26a47.79,47.79,0,0,1,8.64-28.16c6.47-9,14.66-13.37,24.73-13.37,7.29,0,13.36,1.85,18,5.86q7.56,6.43,7.56,17.25,0,4.53-4.86,6.85a25.44,25.44,0,0,1-10.93,2,29.57,29.57,0,0,1-12.82-2.46,6.23,6.23,0,0,0-2.56-.68,2.69,2.69,0,0,0-2.84,1.9,7.68,7.68,0,0,0-.4,3.12,15,15,0,0,0,3.71,9,13.08,13.08,0,0,0,7.44,4.91,7.14,7.14,0,0,0,1.46.12Zm-4.52-36.29a10.28,10.28,0,0,0-6.13,2c-1.85,1.32-3.13,3.11-2.77,5.27s1.66,2.6,5,2.6c5.85,0,8,0,9.31-.41s1.62-1,1.62-2.6a6.4,6.4,0,0,0-2.09-4.93A7.06,7.06,0,0,0,379.16,113.92Z"/><path class="cls-9" d="M243.26,149.52a15.59,15.59,0,0,0,7.09-2.1q4-2.08,6-2.09a9.48,9.48,0,0,1,6.55,2.49,8.06,8.06,0,0,1,2.76,6.25A24.14,24.14,0,0,1,257.23,173a29.41,29.41,0,0,1-20.05,7.61A28.18,28.18,0,0,1,214,169.24q-8-10.25-8-25.06,0-16.69,8.77-28.56c6.48-8.71,15.09-13.31,25.89-13.31a26.28,26.28,0,0,1,15,4.56q7.15,4.86,7.15,13.09a11.68,11.68,0,0,1-1.62,6.35,6.28,6.28,0,0,1-5.53,3.1q-3,0-7-3.85t-7.15-3.84q-4.72,0-7.89,4.5a16.13,16.13,0,0,0-3.18,9.46q0,4.71,4.05,9.27T243.26,149.52Z"/><path class="cls-10" d="M524.83,149.52a15.52,15.52,0,0,0,7.08-2.1c2.65-1.39,4.66-2.09,6-2.09a9.46,9.46,0,0,1,6.54,2.49,8.07,8.07,0,0,1,2.77,6.25A24.15,24.15,0,0,1,538.79,173a29.41,29.41,0,0,1-20,7.61,28.18,28.18,0,0,1-23.2-11.33q-7.95-10.25-8-25.06,0-16.69,8.77-28.56c6.48-8.71,15.1-13.31,25.89-13.31a26.25,26.25,0,0,1,15,4.56q7.15,4.86,7.15,13.09a11.68,11.68,0,0,1-1.62,6.35,6.27,6.27,0,0,1-5.53,3.1q-3,0-7-3.85c-2.69-2.56-5.08-3.84-7.15-3.84q-4.73,0-7.89,4.5a16.12,16.12,0,0,0-3.17,9.46q0,4.71,4,9.27T524.83,149.52Z"/><path class="cls-11" d="M271.9,123.9c-3.11-1.73-3-1.64-3.11-1.73a5.29,5.29,0,0,1-1.48-4.13q0-5.21,7.83-9.73,10.25-6,20.1-6,4.18,0,3.51,5.2L295.48,131a17.43,17.43,0,0,0-.11,4.33v0q1.62,7.74,8.5,7.74c.81,0,1.7,0,2.7-.14,2-.35,3.59-1.91,4.85-4.66a16.29,16.29,0,0,0,1.49-6.67q0-6-2.36-8.53a7.62,7.62,0,0,1-2.37-5.2q0-7.2,7.29-11.46a27.07,27.07,0,0,1,14.06-4.13,8.94,8.94,0,0,1,5.64,2.36,7.13,7.13,0,0,1,2.57,5.53,156,156,0,0,1-1.49,17.41,152.22,152.22,0,0,0-1.48,17.56c0,1.69,1.07,3.68,3.3,5.87s3.12,3.48,3.31,4.81c.69,4.94-1.75,10.19-5.26,15.62-3.87,6-7.8,9.1-12.66,9.1-2.07,0-2.61-1.07-4.55-2.89s-2.74-4.07-4.15-4.12c-2.92-.09-3.28,1.66-6.21,4.38-1.93,1.78-5.84,2.63-10.86,2.63-16.56,0-24.32-8.06-24.32-22.55a180.42,180.42,0,0,1,1.53-19.61,29.49,29.49,0,0,0-.06-7.74C274.32,126.94,273.32,124.7,271.9,123.9Z"/><path class="cls-12" d="M416.57,125.87a11.27,11.27,0,0,0-3.62-3.52,4.72,4.72,0,0,1-1-.67,5.53,5.53,0,0,1-1.62-4.31q0-5.25,7.83-9.83,8.49-5,15.11-5,3.78,0,3.51,4.51c0,.45,0,1.11.13,2,.27,1.41.77,2.12,1.49,2.12a1.64,1.64,0,0,0,.94-.4c2.61-2.16,5.31-4.27,8-6.48,2.83-2.36,6.08-2.7,10.39-2.7q9.86,0,14,3,3.51,2.43,4.18,8.5.14,1.22.14,13.63,0,9,5.39,25.5c3.6,11,5.57,16.06,5.4,19.3-.29,5.57-6.88,8.91-20.65,8.91A19.92,19.92,0,0,1,455.44,177a10,10,0,0,1-5.4-9.17,12.82,12.82,0,0,1,1.28-4.46,15.87,15.87,0,0,0,1.42-4.58q2-23.09,2-24,0-15.39-6.74-15.39-4.59,0-5.8,6.35a75.63,75.63,0,0,0-.41,10.12,78.06,78.06,0,0,0,1.69,13.69,78.31,78.31,0,0,1,1.68,12.35q0,9.18-5.46,13.83t-14.51,4.66q-7.27,0-10.52-1.62-4.86-2.3-4.86-8.62,0-2.7,3.78-14,4.18-12.53,5.13-19.13a51.83,51.83,0,0,0-.55-6.94,10.61,10.61,0,0,0-1.62-4.23Z"/><path class="cls-13" d="M552.67,117.31q0-6.42,10.66-11.37,9.45-4.41,17.27-4.41,2.56,0,4.93,3a7.26,7.26,0,0,1,1.82,5.42,67.08,67.08,0,0,1-1.55,11.1,58.74,58.74,0,0,0-1.55,11.24q0,8.16,5.12,21.67c3.42,9,5,11.44,5.13,13.78.32,4.36-2.7,7.76-8.09,10.16a35.33,35.33,0,0,1-13.9,2.68,33.44,33.44,0,0,1-13.9-2.68c-5.13-2.31-8.92-5.95-7.69-10.43A117.93,117.93,0,0,1,555.57,156a55.34,55.34,0,0,0,5.06-20.13,31.35,31.35,0,0,0-.64-7.37,10.78,10.78,0,0,0-1-2.86,3.72,3.72,0,0,0-.21-.39,7.43,7.43,0,0,0-2.8-2.79c-.56-.34-1.11-.68-1.65-1C553.21,120.75,552.67,119.37,552.67,117.31Z"/><path class="cls-14" d="M663.19,164.71c.5,5.13-2.48,9.18-7.43,12.07a27.7,27.7,0,0,1-14.57,3.8,16,16,0,0,1-7.42-2q-3.78-2-5.13-2a23.64,23.64,0,0,0-5.87,1.15,23.94,23.94,0,0,1-6.14,1.16A16,16,0,0,1,604,173a20.4,20.4,0,0,1-5.13-13.7,28.55,28.55,0,0,1,8.1-20.08,36.65,36.65,0,0,1,18.54-10.61c.32-.08.65-.13,1-.18a21.73,21.73,0,0,0,3.49-1q2.64-.94,2.64-4.88,0-9.11-5.13-9.1-3.1,0-5.33,3.33c-1.24,1.85-2.43,3.64-3.57,5.4a9.63,9.63,0,0,1-2.13,2.37,10.07,10.07,0,0,1-6.2,2.06,5.13,5.13,0,0,1-4.16-1.86,7.39,7.39,0,0,1-1.69-4.78q0-9,10.39-13.84a42.94,42.94,0,0,1,18.49-3.8q13.49,0,17.81,6.64,2.7,4.35,2.7,15.88v2q0,9.9,1.49,15.2.53,1.75,4.25,12.14C662,161.11,662.93,162.11,663.19,164.71ZM632,142.51c0-2.45-.39-3.52-.87-4.2a1.41,1.41,0,0,0-1.16-.47,5.89,5.89,0,0,0-5.26,3,12.08,12.08,0,0,0-1.89,6.45q0,7.18,5.13,7.19,1.89,0,3.1-3.94a16.52,16.52,0,0,0,.95-5.15v-2.93Z"/><path class="cls-15" d="M571.22,94.76s-.61,3,1.45,3.22H573c2.4,0,1.76-3.31,1.76-3.31s5.42,3.79,7.39,1.9c0,0,1.41-1.29-1.63-4,0,0,7-1,8.55-3.31a1.32,1.32,0,0,0-.34-1.84c-.61-.45-1.8-.89-4.09-.84l-3.78.29s9-8.67,6.26-10.47c0,0-1.7-1.86-11.49,7.52,0,0,.74-12.81-2.06-15.55a1.29,1.29,0,0,0-2,.24c-.86,1.34-2,5.08-1.82,15.49,0,0-9.64-9.16-11.75-7.14,0,0-3,1.83,6.47,10.2,0,0-8-.82-8.41,1.6,0,0-1.23,4.3,9.28,4.08a10.88,10.88,0,0,0-2.18,2.53,1.24,1.24,0,0,0,.8,1.74C565.2,97.55,568,97.85,571.22,94.76Z"/><path class="cls-1" d="M309.13,399.8c0,3.9,2.54,6,7.21,6s7.1-2.06,7.1-6v-62.4H309.13Q309.13,368.6,309.13,399.8Z"/><path class="cls-1" d="M337.08,388.72a11.16,11.16,0,0,0,.12,2.31c.49,2.22,3.23,3.75,6.75,3.82s6.36-1.3,7.07-3.54a8.41,8.41,0,0,0,.36-2.48V337.38H337.07Q337.07,363,337.08,388.72Z"/><path class="cls-1" d="M281.37,369.51a6.8,6.8,0,0,0,.42,2.67c.87,2,3.72,3.17,7,3.07s5.7-1.33,6.4-3.32a7.84,7.84,0,0,0,.43-2.66q0-15.94,0-31.89H281.36Q281.36,353.44,281.37,369.51Z"/><path class="cls-1" d="M364.85,367.25a6.65,6.65,0,0,0,.5,2.66c.69,1.61,2.43,2.63,5.14,3,5,.64,8.63-1.37,8.65-4.88.05-10.21,0-20.43,0-30.64H364.85C364.85,347.34,364.83,357.29,364.85,367.25Z"/><path class="cls-1" d="M253.43,342.55c0,4.81,0,9.62,0,14.43,0,1.94.6,3.71,3.59,4.81,4.93,1.82,10.61-.34,10.67-4.18.1-6.74,0-13.49,0-20.23H253.43Z"/><path class="cls-1" d="M392.8,337.38h0c0,5.71,0,11.42,0,17.12a5.34,5.34,0,0,0,.83,3c1.27,1.84,4.48,2.68,7.8,2.27,3.49-.44,5.59-2.11,5.6-4.88q.06-8.75.06-17.5Z"/><path class="cls-1" d="M225.76,350.11a6.31,6.31,0,0,0,2.77,4c1.81,1.3,4.67,1.3,7.25.57,3-.86,4.15-2.49,4.16-4.39,0-4.32,0-8.63,0-12.95h-14.3C225.63,341.62,225.42,345.88,225.76,350.11Z"/><path class="cls-1" d="M420.6,349.56a4.22,4.22,0,0,0,1.11,2.56c1.47,1.74,4.7,2.52,7.72,2,3.27-.52,5.35-2.08,5.41-4.4.11-4.11,0-8.22,0-12.33v-.05H420.53Q420.53,343.47,420.6,349.56Z"/><path class="cls-1" d="M197.86,344.55c.14,2.79,3.35,4.53,7.37,4.42s6.62-1.88,6.76-4.63c.11-2.3,0-4.61,0-6.92v0H197.69C197.69,339.77,197.74,342.16,197.86,344.55Z"/><path class="cls-1" d="M448.48,337.38q0,3.25,0,6.51c0,3.14,2.7,5,7,5.08s7.1-1.84,7.27-4.92c.12-2.22,0-4.45,0-6.67Z"/><path class="cls-16" d="M311.88,398.51c0,3.9,2.54,6,7.21,6s7.1-2.05,7.1-6q0-31.2,0-62.4h-14.3Q311.88,367.29,311.88,398.51Z"/><path class="cls-17" d="M339.83,387.42a10.51,10.51,0,0,0,.13,2.31c.48,2.23,3.22,3.75,6.74,3.82s6.36-1.29,7.07-3.53a8.2,8.2,0,0,0,.36-2.49q0-25.72,0-51.45H339.83Z"/><path class="cls-18" d="M284.13,368.22a6.57,6.57,0,0,0,.42,2.66c.86,2,3.72,3.17,7.05,3.07s5.69-1.32,6.39-3.31a7.94,7.94,0,0,0,.43-2.67q0-15.95,0-31.89H284.11Q284.11,352.15,284.13,368.22Z"/><path class="cls-19" d="M367.6,366a6.73,6.73,0,0,0,.5,2.67c.69,1.61,2.43,2.63,5.15,3,4.95.64,8.63-1.37,8.64-4.88.05-10.21,0-20.42,0-30.64H367.6Q367.6,351,367.6,366Z"/><path class="cls-20" d="M256.18,341.25q0,7.23,0,14.44c0,1.93.59,3.71,3.58,4.81,4.94,1.82,10.62-.35,10.68-4.18.1-6.75,0-13.49,0-20.24h-14.3Z"/><path class="cls-21" d="M395.55,336.09h0c0,5.7,0,11.41,0,17.12a5.35,5.35,0,0,0,.82,3c1.28,1.84,4.49,2.68,7.8,2.26,3.49-.44,5.59-2.11,5.61-4.88,0-5.83.06-11.66.05-17.5H395.55Z"/><path class="cls-22" d="M228.52,348.81a6.26,6.26,0,0,0,2.76,4c1.82,1.3,4.68,1.31,7.26.57,3-.85,4.15-2.49,4.16-4.39,0-4.31,0-8.63,0-12.95h-14.3C228.38,340.33,228.17,344.58,228.52,348.81Z"/><path class="cls-23" d="M423.35,348.27a4.29,4.29,0,0,0,1.12,2.56c1.47,1.73,4.69,2.52,7.71,2,3.28-.52,5.35-2.08,5.41-4.4.11-4.11,0-8.22,0-12.33v-.06H423.28Q423.3,342.17,423.35,348.27Z"/><path class="cls-24" d="M200.62,343.25c.13,2.8,3.34,4.54,7.37,4.43s6.62-1.89,6.75-4.63c.11-2.31,0-4.62,0-6.92v-.05H200.44Q200.44,339.67,200.62,343.25Z"/><path class="cls-25" d="M451.23,336.08c0,2.17,0,4.34,0,6.51,0,3.14,2.69,5,7,5.09s7.1-1.84,7.26-4.93c.12-2.22,0-4.44,0-6.67Z"/><path class="cls-1" d="M323.43,8.93a9.89,9.89,0,0,0-.17-2.49c-.55-2.17-3.5-3.69-7-3.69s-6.09,1.39-6.78,3.54a8.11,8.11,0,0,0-.37,2.48q0,31.2,0,62.39h14.31Q323.44,40,323.43,8.93Z"/><path class="cls-1" d="M344.29,13.69c-4.74,0-7.21,2-7.22,5.93V71.16h14.31q0-25.71,0-51.43C351.39,15.79,348.94,13.72,344.29,13.69Z"/><path class="cls-1" d="M295.25,36.66c-.81-2.29-3.81-3.57-7.58-3.33-4,.26-6.3,2.07-6.3,5.08,0,10.85,0,21.69,0,32.54v.21h14.31q0-15.91,0-31.84A7.83,7.83,0,0,0,295.25,36.66Z"/><path class="cls-1" d="M379,39.18c-.49-2.18-3.52-3.71-6.93-3.71S366,36.88,365.22,39a7,7,0,0,0-.38,2.29q0,14.93,0,29.86h14.32q0-13.87,0-27.75A19.94,19.94,0,0,0,379,39.18Z"/><path class="cls-1" d="M267.73,65.61c0-5,.07-10-.06-15-.07-2.59-2.87-4.34-6.7-4.48s-6.74,1.51-7.35,4.05a9.42,9.42,0,0,0-.19,2.11q0,9.44,0,18.88h14.29V71C267.73,69.2,267.73,67.41,267.73,65.61Z"/><path class="cls-1" d="M407,53.66c0-1.33-1.19-2.86-2.59-3.92-1.77-1.34-4.66-1.4-7.22-.74-3,.76-4.36,2.3-4.36,4.28,0,6,0,11.92,0,17.88h14.31Q407.1,62.42,407,53.66Z"/><path class="cls-1" d="M238.8,55.59c-1.46-1.74-4.64-2.52-7.71-2.06s-5.35,2.1-5.41,4.4c-.11,4.36,0,8.72,0,13.08h0s0,.1,0,.15h14.3c0-4.34,0-8.68,0-13A4.29,4.29,0,0,0,238.8,55.59Z"/><path class="cls-1" d="M434.84,58.89c-.12-3.47-5-5.56-9.83-4.3-3.05.8-4.4,2.38-4.42,4.29q-.07,6.13-.06,12.28h14.34C434.87,67.07,435,63,434.84,58.89Z"/><path class="cls-1" d="M212,64.28c-.12-2.84-2.87-4.66-6.94-4.71s-7.09,1.71-7.21,4.54q-.15,3.52-.15,7H212C212,68.87,212.09,66.58,212,64.28Z"/><path class="cls-1" d="M462.73,65a5.84,5.84,0,0,0-.89-3c-1.24-1.79-4.37-2.67-7.51-2.33s-5.67,1.93-5.74,4.19c-.09,2.44-.11,4.89-.11,7.33h14.28V71.1C462.77,69.05,462.86,67,462.73,65Z"/><path class="cls-26" d="M326.19,6.18a10,10,0,0,0-.17-2.5c-.56-2.17-3.51-3.69-7-3.68S313,1.39,312.27,3.53A8.16,8.16,0,0,0,311.89,6q0,31.2,0,62.4h14.3Q326.19,37.29,326.19,6.18Z"/><path class="cls-27" d="M347,10.94c-4.74,0-7.21,2-7.21,5.92V68.41h14.31V17C354.14,13,351.7,11,347,10.94Z"/><path class="cls-28" d="M298,33.9c-.81-2.28-3.82-3.56-7.58-3.32-4,.25-6.3,2.07-6.31,5.08q0,16.26,0,32.54v.21h14.31q0-15.91,0-31.84A8.18,8.18,0,0,0,298,33.9Z"/><path class="cls-29" d="M381.71,36.43c-.48-2.19-3.52-3.72-6.93-3.71s-6.07,1.4-6.81,3.54a7.16,7.16,0,0,0-.37,2.28q0,14.94,0,29.87h14.31q0-13.87,0-27.75A19.3,19.3,0,0,0,381.71,36.43Z"/><path class="cls-30" d="M270.48,62.86c0-5,.07-10-.06-15-.06-2.6-2.86-4.35-6.7-4.48s-6.73,1.5-7.35,4.05a8.77,8.77,0,0,0-.18,2.11q0,9.44,0,18.88h14.3V62.86Z"/><path class="cls-31" d="M409.72,50.9c0-1.32-1.18-2.86-2.58-3.91-1.78-1.34-4.67-1.4-7.22-.75-3,.76-4.36,2.3-4.36,4.29q0,8.94,0,17.88h14.31Q409.86,59.65,409.72,50.9Z"/><path class="cls-32" d="M241.56,52.83c-1.46-1.73-4.64-2.51-7.71-2.06s-5.36,2.1-5.42,4.4c-.11,4.36,0,8.72,0,13.08h0v.16h14.29c0-4.34,0-8.68,0-13A4.34,4.34,0,0,0,241.56,52.83Z"/><path class="cls-33" d="M437.59,56.13c-.12-3.46-5-5.56-9.83-4.3-3,.8-4.4,2.39-4.42,4.29q-.06,6.15-.06,12.29h14.34C437.63,64.32,437.74,60.22,437.59,56.13Z"/><path class="cls-34" d="M214.74,61.53c-.12-2.85-2.87-4.66-6.93-4.71s-7.09,1.7-7.22,4.53c-.1,2.35-.15,4.71-.15,7.06h14.32C214.77,66.12,214.84,63.82,214.74,61.53Z"/><path class="cls-35" d="M465.48,62.2a5.75,5.75,0,0,0-.89-3c-1.24-1.79-4.37-2.66-7.5-2.33-3.29.36-5.67,1.93-5.75,4.19-.08,2.45-.11,4.89-.11,7.34h14.29v-.06C465.52,66.3,465.61,64.24,465.48,62.2Z"/></g></g></svg>